# xmcd CD database file
#
# Track frame offsets:
#	150
#	24029
#	41831
#	76899
#	102571
#	133100
#	158185
#	179945
#	204124
#	234465
#
# Disc length: 3485 seconds
#
# Revision: 0
# Processed by: cddbd v1.5.2PL0 Copyright (c) Steve Scherf et al.
# Submitted via: CDex 1.70beta2
#
DISCID=7f0d9b0a
DTITLE=Fabien Degryse trio - The heart of the acoustic guitar - chapter 2
DYEAR=2009
DGENRE=Jazz
TTITLE0=Where do we go?
TTITLE1=In another life...
TTITLE2=The funny worm
TTITLE3=Lisanne
TTITLE4=Painting the planet
TTITLE5=Manzaka Mankoyi
TTITLE6=Colipain's night
TTITLE7=Ze mazy-k place
TTITLE8=Tears on a leaf
TTITLE9=Some scary future!
EXTD=YEAR: 2009
EXTT0=
EXTT1=
EXTT2=
EXTT3=
EXTT4=
EXTT5=
EXTT6=
EXTT7=
EXTT8=
EXTT9=
PLAYORDER=
